<svg width="769px" height="240px" viewBox="0 0 769 240" version="1.1" xmlns="http://www.w3.org/2000/svg" xmlns:xlink="http://www.w3.org/1999/xlink">
    <g id="Page-1" stroke="none" stroke-width="1" fill="none" fill-rule="evenodd">
        <g id="logo" fill-rule="nonzero">
            <g id="Group">
                <path d="M723,240 L45.7,240 C20.7,240 0.3,219.6 0.3,194.6 L0.3,46.1 C0.3,21.1 20.7,0.7 45.7,0.7 L723,0.7 C748,0.7 768.4,21.1 768.4,46.1 L768.4,194.7 C768.4,219.7 748.1,240 723,240 Z M45.7,6.4 C23.8,6.4 6,24.2 6,46.1 L6,194.7 C6,216.6 23.8,234.3 45.6,234.3 L723,234.3 C744.9,234.3 762.6,216.5 762.6,194.7 L762.6,46.1 C762.6,24.2 744.8,6.5 723,6.5 L45.7,6.5 L45.7,6.4 Z" id="Shape" fill="#000000"></path>
                <g transform="translate(42.000000, 40.000000)" id="Shape">
                    <path d="M635.3,69 C621.1,69 609.6,80.5 609.6,94.7 C609.6,108.9 621.1,120.4 635.3,120.4 C649.5,120.4 661,108.9 661,94.7 C661,80.5 649.4,69 635.3,69 Z M655.2,94.7 C655.2,105.7 646.2,114.7 635.2,114.7 C624.2,114.7 615.2,105.7 615.2,94.7 C615.2,83.7 624.2,74.7 635.2,74.7 C646.3,74.8 655.2,83.7 655.2,94.7 Z" fill="#000000"></path>
                    <path d="M635.3,46.2 C608.5,46.2 586.7,68 586.7,94.8 C586.7,121.6 608.5,143.4 635.3,143.4 C662.1,143.4 683.9,121.6 683.9,94.8 C683.8,67.9 662,46.2 635.3,46.2 Z M678.1,94.7 C678.1,118.3 658.9,137.5 635.3,137.5 C611.7,137.5 592.5,118.3 592.5,94.7 C592.5,71.1 611.7,51.9 635.3,51.9 C658.9,51.9 678.1,71.1 678.1,94.7 Z" fill="#000000"></path>
                    <path d="M436.9,69 C422.7,69 411.2,80.5 411.2,94.7 C411.2,108.9 422.7,120.4 436.9,120.4 C451.1,120.4 462.6,108.9 462.6,94.7 C462.7,80.5 451.1,69 436.9,69 Z M456.9,94.7 C456.9,105.7 447.9,114.7 436.9,114.7 C425.9,114.7 416.9,105.7 416.9,94.7 C416.9,83.7 425.9,74.7 436.9,74.7 C447.9,74.8 456.9,83.7 456.9,94.7 Z" fill="#E42313"></path>
                    <path d="M436.9,46.2 C410.1,46.2 388.3,68 388.3,94.8 C388.3,121.6 410.1,143.4 436.9,143.4 L485.5,143.4 L485.5,94.8 C485.5,67.9 463.7,46.2 436.9,46.2 Z M479.7,94.7 L479.7,137.5 L436.9,137.5 C413.3,137.5 394.1,118.3 394.1,94.7 C394.1,71.1 413.3,51.9 436.9,51.9 C460.5,51.9 479.7,71.1 479.7,94.7 Z" fill="#000000"></path>
                    <path d="M177,94.7 C177,105.7 168,114.7 157,114.7 C146,114.7 137,105.7 137,94.7 L137,46.1 L108.4,46.1 L108.4,94.7 C108.4,121.5 130.2,143.3 157,143.3 C183.8,143.3 205.6,121.5 205.6,94.7 L205.6,46.1 L177,46.1 L177,94.7 Z M182.8,94.7 L182.8,51.9 L199.9,51.9 L199.9,94.7 C199.9,118.3 180.7,137.5 157.1,137.5 C133.5,137.5 114.3,118.3 114.3,94.7 L114.3,51.9 L131.4,51.9 L131.4,94.7 C131.4,108.9 142.9,120.4 157.1,120.4 C171.3,120.4 182.8,108.9 182.8,94.7 Z" fill="#000000"></path>
                    <path d="M333.2,46.2 C326.6,46.2 320.1,47.5 314.1,50.2 C308.4,52.6 303.3,56.1 299,60.5 C294.6,56.1 289.6,52.7 283.9,50.2 C277.8,47.6 271.4,46.2 264.8,46.2 L216.2,46.2 L216.2,143.3 L244.8,143.3 L244.8,94.7 C244.8,83.7 253.8,74.7 264.8,74.7 C275.8,74.7 284.8,83.7 284.8,94.7 L284.8,143.3 L313.4,143.3 L313.4,94.6 C313.4,89.3 315.5,84.3 319.3,80.6 C323.1,76.9 328.1,74.8 333.4,74.8 C344.4,74.8 353.4,83.8 353.4,94.8 L353.4,143.4 L382,143.4 L382,94.8 C381.8,67.9 360,46.2 333.2,46.2 Z M307.5,94.7 L307.5,137.5 L290.4,137.5 L290.4,94.7 C290.4,80.5 278.9,69 264.7,69 C250.5,69 239,80.5 239,94.7 L239,137.5 L221.9,137.5 L221.9,51.9 L264.7,51.9 L264.9,51.9 C277.1,51.9 288.7,57.2 296.8,66.5 L299,69 L301.2,66.5 C309.3,57.2 321,51.9 333.3,51.9 C356.9,51.9 376.1,71.1 376.1,94.7 L376.1,137.5 L359,137.5 L359,94.7 C359,80.5 347.5,69 333.3,69 C319,69 307.5,80.5 307.5,94.7 Z" fill="#000000"></path>
                    <path d="M492.1,94.7 C492.1,121.5 513.9,143.3 540.7,143.3 L580.1,143.3 L580.1,114.7 L540.7,114.7 C529.7,114.7 520.7,105.7 520.7,94.7 C520.7,83.7 529.7,74.7 540.7,74.7 L580.1,74.7 L580.1,46.1 L540.7,46.1 C513.9,46.2 492.1,67.9 492.1,94.7 Z M514.9,94.7 C514.9,108.9 526.4,120.4 540.6,120.4 L574.3,120.4 L574.3,137.5 L540.6,137.5 C517,137.5 497.8,118.3 497.8,94.7 C497.8,71.1 517,51.9 540.6,51.9 L574.3,51.9 L574.3,69 L540.6,69 C526.5,69 514.9,80.5 514.9,94.7 Z" fill="#000000"></path>
                    <path d="M49.4,69 C35.2,69 23.7,80.5 23.7,94.7 C23.7,108.9 35.2,120.4 49.4,120.4 C63.6,120.4 75.1,108.9 75.1,94.7 C75.2,80.5 63.6,69 49.4,69 Z M69.4,94.7 C69.4,105.7 60.4,114.7 49.4,114.7 C38.4,114.7 29.4,105.7 29.4,94.7 C29.4,83.7 38.4,74.7 49.4,74.7 C60.4,74.8 69.4,83.7 69.4,94.7 Z" fill="#000000"></path>
                    <path d="M69.4,0.5 L69.4,50.5 C63.1,47.7 56.3,46.2 49.4,46.2 C22.6,46.2 0.8,68 0.8,94.8 C0.8,121.6 22.6,143.4 49.4,143.4 C76.2,143.4 98,121.6 98,94.8 L98,0.6 L69.4,0.6 L69.4,0.5 Z M92.2,94.7 C92.2,118.3 73,137.5 49.4,137.5 C25.8,137.5 6.6,118.3 6.6,94.7 C6.6,71.1 25.8,51.9 49.4,51.9 C56.9,51.9 64.3,53.9 70.8,57.7 L75.1,60.2 L75.1,6.2 L92.2,6.2 L92.2,94.7 Z" fill="#000000"></path>
                </g>
            </g>
        </g>
    </g>
</svg>